<svg xmlns="http://www.w3.org/2000/svg" xmlns:xlink="http://www.w3.org/1999/xlink" width="36.411" height="34.208" viewBox="0 0 36.411 34.208">
  <defs>
    <clipPath id="clip-path">
      <path id="Pfad_135" data-name="Pfad 135" d="M0-46.815H36.411V-81.023H0Z" transform="translate(0 81.023)" fill="none"/>
    </clipPath>
  </defs>
  <g id="Gruppe_126" data-name="Gruppe 126" transform="translate(0 81.023)">
    <g id="Gruppe_125" data-name="Gruppe 125" transform="translate(0 -81.023)" clip-path="url(#clip-path)">
      <g id="Gruppe_123" data-name="Gruppe 123" transform="translate(7.246 0)">
        <path id="Pfad_133" data-name="Pfad 133" d="M-39.948-45.685a3.258,3.258,0,0,0-.222-.93L-51.533-78.1a1.413,1.413,0,0,0-.288-.485,1.171,1.171,0,0,0-.523-.3,4.121,4.121,0,0,0-.89-.144q-.549-.039-1.387-.039-.785,0-1.3.039a3.766,3.766,0,0,0-.838.144,1.142,1.142,0,0,0-.5.288,1.371,1.371,0,0,0-.275.472L-68.89-46.641a3.23,3.23,0,0,0-.222.93.663.663,0,0,0,.183.537,1.248,1.248,0,0,0,.681.249A9.635,9.635,0,0,0-67-44.86a10.878,10.878,0,0,0,1.191-.052,2.332,2.332,0,0,0,.707-.17,1.013,1.013,0,0,0,.379-.288,1.363,1.363,0,0,0,.21-.406l9.739-28.629h.026l10,28.734a2.04,2.04,0,0,0,.222.393.779.779,0,0,0,.367.249,2.934,2.934,0,0,0,.733.131q.484.039,1.3.039a12.614,12.614,0,0,0,1.3-.052,1.266,1.266,0,0,0,.694-.236.644.644,0,0,0,.2-.537" transform="translate(69.113 79.068)" fill="#3a9fb7"/>
      </g>
      <g id="Gruppe_124" data-name="Gruppe 124" transform="translate(0 0)">
        <path id="Pfad_134" data-name="Pfad 134" d="M-19.849,0c-.518,0-.955.013-1.3.039a3.79,3.79,0,0,0-.838.144,1.14,1.14,0,0,0-.5.288,1.372,1.372,0,0,0-.275.471L-34.117,32.427a3.215,3.215,0,0,0-.222.93.661.661,0,0,0,.183.537,1.245,1.245,0,0,0,.681.249,9.624,9.624,0,0,0,1.244.066,10.869,10.869,0,0,0,1.191-.053,2.332,2.332,0,0,0,.707-.17,1.017,1.017,0,0,0,.379-.288,1.371,1.371,0,0,0,.209-.406l9.739-28.629A38.6,38.6,0,0,0-18.825.718c0-.507-.506-.718-1.024-.718" transform="translate(34.34)" fill="#3a9fb7"/>
      </g>
    </g>
  </g>
</svg>
