<svg xmlns="http://www.w3.org/2000/svg" width="15.352" height="11.902" viewBox="0 0 15.352 11.902">
  <g id="Gruppe_657" data-name="Gruppe 657" transform="translate(-574 -191)">
    <rect id="Rechteck_441" data-name="Rechteck 441" width="2.76" height="10.004" rx="1.38" transform="translate(580.555 192.897)"/>
    <circle id="Ellipse_69" data-name="Ellipse 69" cx="0.949" cy="0.949" r="0.949" transform="translate(580.9 191)"/>
    <path id="Pfad_440" data-name="Pfad 440" d="M592.7,194.783a18.444,18.444,0,0,1,5.52,1.38,10.792,10.792,0,0,1,1.553.862s.69.518-.173.69-3.1-1.207-3.1-1.207l-3.795-.345" transform="translate(-11.024 -2.23)"/>
    <path id="Pfad_441" data-name="Pfad 441" d="M582.8,194.783a18.444,18.444,0,0,0-5.52,1.38,10.764,10.764,0,0,0-1.552.862s-.69.518.173.69,3.1-1.207,3.1-1.207l3.795-.345" transform="translate(-0.863 -2.23)"/>
    <path id="Pfad_442" data-name="Pfad 442" d="M574.009,209.072a.615.615,0,0,0-.009.087c0,.619,1,1.121,2.242,1.121s2.242-.5,2.242-1.121a.558.558,0,0,0-.009-.087Z" transform="translate(0 -10.655)"/>
    <rect id="Rechteck_442" data-name="Rechteck 442" width="0.368" height="3.792" transform="translate(576.089 195.065) rotate(21.648)"/>
    <rect id="Rechteck_443" data-name="Rechteck 443" width="0.368" height="3.792" transform="translate(576.263 195.191) rotate(-20.937)"/>
    <path id="Pfad_443" data-name="Pfad 443" d="M600.487,209.072a.615.615,0,0,0-.009.087c0,.619,1,1.121,2.242,1.121s2.242-.5,2.242-1.121a.615.615,0,0,0-.009-.087Z" transform="translate(-15.611 -10.655)"/>
    <rect id="Rechteck_444" data-name="Rechteck 444" width="0.368" height="3.792" transform="translate(586.956 195.065) rotate(21.648)"/>
    <rect id="Rechteck_445" data-name="Rechteck 445" width="0.368" height="3.792" transform="translate(587.13 195.191) rotate(-20.937)"/>
  </g>
</svg>
