<svg id="Logo" xmlns="http://www.w3.org/2000/svg" xmlns:xlink="http://www.w3.org/1999/xlink" width="236.5" height="117.007" viewBox="0 0 236.5 117.007">
  <defs>
    <clipPath id="clip-path">
      <path id="Pfad_132" data-name="Pfad 132" d="M0,35.984H236.5V-81.023H0Z" transform="translate(0 81.023)" fill="#3b9fb7"/>
    </clipPath>
  </defs>
  <g id="Gruppe_121" data-name="Gruppe 121" clip-path="url(#clip-path)">
    <g id="Gruppe_117" data-name="Gruppe 117" transform="translate(23.84 0.001)">
      <path id="Pfad_128" data-name="Pfad 128" d="M26.847,35.115a11.513,11.513,0,0,0-.732-3.18L-11.269-75.754a4.876,4.876,0,0,0-.948-1.658,3.825,3.825,0,0,0-1.722-1.03,13.088,13.088,0,0,0-2.93-.492q-1.808-.134-4.565-.134-2.583,0-4.264.134a11.964,11.964,0,0,0-2.756.492,3.729,3.729,0,0,0-1.637.985,4.732,4.732,0,0,0-.9,1.613L-68.379,31.846a11.413,11.413,0,0,0-.732,3.18,2.322,2.322,0,0,0,.6,1.837,4.016,4.016,0,0,0,2.24.851,30.508,30.508,0,0,0,4.092.224,34.446,34.446,0,0,0,3.92-.179,7.434,7.434,0,0,0,2.326-.582,3.352,3.352,0,0,0,1.248-.986,4.734,4.734,0,0,0,.69-1.388L-21.95-63.121h.086l32.9,98.281a7.053,7.053,0,0,0,.732,1.345,2.562,2.562,0,0,0,1.207.851,9.324,9.324,0,0,0,2.412.448q1.593.134,4.264.134a39.939,39.939,0,0,0,4.264-.179,4.065,4.065,0,0,0,2.283-.806,2.25,2.25,0,0,0,.646-1.837" transform="translate(69.113 79.068)" fill="#3b9fb7"/>
    </g>
    <g id="Gruppe_118" data-name="Gruppe 118" transform="translate(0 0.001)">
      <path id="Pfad_129" data-name="Pfad 129" d="M13.339,0c-1.7,0-3.143.045-4.264.134A12.043,12.043,0,0,0,6.319.627a3.722,3.722,0,0,0-1.637.986,4.738,4.738,0,0,0-.9,1.612L-33.605,110.914a11.363,11.363,0,0,0-.732,3.18,2.316,2.316,0,0,0,.6,1.837,4.006,4.006,0,0,0,2.24.851,30.474,30.474,0,0,0,4.092.225,34.406,34.406,0,0,0,3.92-.181,7.436,7.436,0,0,0,2.326-.582,3.363,3.363,0,0,0,1.248-.985,4.758,4.758,0,0,0,.689-1.389L12.823,15.947S16.709,4.189,16.709,2.456,15.043,0,13.339,0" transform="translate(34.34 0)" fill="#3b9fb7"/>
    </g>
    <g id="Gruppe_119" data-name="Gruppe 119" transform="translate(113.502 40.885)">
      <path id="Pfad_130" data-name="Pfad 130" d="M3.821.306A1.151,1.151,0,0,0,3.6-.086a.908.908,0,0,0-.407-.243A3.111,3.111,0,0,0,2.5-.445Q2.072-.478,1.42-.477q-.608,0-1.007.032a2.84,2.84,0,0,0-.65.117A.868.868,0,0,0-.623-.1a1.1,1.1,0,0,0-.212.38L-9.664,25.712a2.661,2.661,0,0,0-.172.751.547.547,0,0,0,.142.433.936.936,0,0,0,.529.2,7.029,7.029,0,0,0,.966.053,8.343,8.343,0,0,0,.925-.042,1.766,1.766,0,0,0,.55-.139.8.8,0,0,0,.294-.233,1.1,1.1,0,0,0,.162-.328l2.156-6.578H6.831l2.258,6.663a1.685,1.685,0,0,0,.172.316.6.6,0,0,0,.286.2,2.216,2.216,0,0,0,.569.105q.375.033,1.007.032a9.691,9.691,0,0,0,1.007-.042.969.969,0,0,0,.539-.191.531.531,0,0,0,.153-.435,2.734,2.734,0,0,0-.174-.751Zm2.1,16.628H-3.237L1.3,3.288h.019ZM36.454,7.392a11.37,11.37,0,0,0-2.42-4.178A10.5,10.5,0,0,0,30.078.57,15.944,15.944,0,0,0,24.3-.35H18.343a1.409,1.409,0,0,0-.884.328A1.387,1.387,0,0,0,17.04,1.13V25.543a1.389,1.389,0,0,0,.418,1.152,1.409,1.409,0,0,0,.884.328h5.573a17.387,17.387,0,0,0,5.816-.868,10.463,10.463,0,0,0,4.118-2.612,11.352,11.352,0,0,0,2.553-4.4,19.865,19.865,0,0,0,.875-6.208,17.347,17.347,0,0,0-.825-5.543M33.017,17.917a8.85,8.85,0,0,1-1.74,3.4,7,7,0,0,1-2.888,2.01,12.068,12.068,0,0,1-4.25.656h-3.6V2.675H24.1a10.847,10.847,0,0,1,4.454.783,7.692,7.692,0,0,1,2.859,2.178,9.014,9.014,0,0,1,1.656,3.311,15.478,15.478,0,0,1,.529,4.136,17.835,17.835,0,0,1-.579,4.833M61.4.961A3.6,3.6,0,0,0,61.593.21a.54.54,0,0,0-.1-.433.822.822,0,0,0-.5-.2,7.187,7.187,0,0,0-1-.053q-.61,0-.976.032a1.987,1.987,0,0,0-.569.117.541.541,0,0,0-.285.233,1.6,1.6,0,0,0-.143.38L50.681,23.279H50.66L43.115.242a1.845,1.845,0,0,0-.174-.349.649.649,0,0,0-.274-.221,1.667,1.667,0,0,0-.519-.117c-.224-.022-.526-.032-.905-.032q-.691,0-1.1.042a1.146,1.146,0,0,0-.59.191.5.5,0,0,0-.172.433,2.7,2.7,0,0,0,.172.751l8.6,25.428a1.5,1.5,0,0,0,.132.286.669.669,0,0,0,.193.2,1.047,1.047,0,0,0,.294.137,3.7,3.7,0,0,0,.418.1,4.356,4.356,0,0,0,.579.053c.224.006.485.01.783.01q.589,0,.987-.032A2.84,2.84,0,0,0,52.2,27a.947.947,0,0,0,.4-.233,1.033,1.033,0,0,0,.224-.38ZM69.311.2a.536.536,0,0,0-.082-.3.537.537,0,0,0-.285-.2,2.819,2.819,0,0,0-.539-.127,5.46,5.46,0,0,0-.844-.053,5.118,5.118,0,0,0-.8.053,3.1,3.1,0,0,0-.55.127.607.607,0,0,0-.305.2.491.491,0,0,0-.092.3V26.473a.487.487,0,0,0,.367.5,2.831,2.831,0,0,0,.55.127,6.607,6.607,0,0,0,1.677,0,2.82,2.82,0,0,0,.539-.127.487.487,0,0,0,.367-.5ZM93.849,22.349a2.371,2.371,0,0,0-.092-.5.447.447,0,0,0-.164-.243.46.46,0,0,0-.246-.064,1.6,1.6,0,0,0-.837.4,15.46,15.46,0,0,1-1.361.9,10.5,10.5,0,0,1-2,.9,8.485,8.485,0,0,1-2.749.4,7.8,7.8,0,0,1-3.334-.687,6.54,6.54,0,0,1-2.484-2.032,9.712,9.712,0,0,1-1.554-3.342,17.6,17.6,0,0,1-.543-4.6,17.608,17.608,0,0,1,.562-4.665,10.729,10.729,0,0,1,1.586-3.459,6.821,6.821,0,0,1,2.463-2.147,6.983,6.983,0,0,1,3.2-.729,8.272,8.272,0,0,1,2.77.412,10.58,10.58,0,0,1,1.963.91,13.032,13.032,0,0,1,1.319.91,1.5,1.5,0,0,0,.8.413.412.412,0,0,0,.276-.1.746.746,0,0,0,.194-.3,2.019,2.019,0,0,0,.122-.5,5.278,5.278,0,0,0,.042-.719,5.957,5.957,0,0,0-.031-.657,3.542,3.542,0,0,0-.082-.475,1.468,1.468,0,0,0-.132-.349,2.442,2.442,0,0,0-.355-.433,5.506,5.506,0,0,0-.987-.729A8.758,8.758,0,0,0,90.566.095a13.7,13.7,0,0,0-1.994-.562,11.021,11.021,0,0,0-2.217-.221,11.184,11.184,0,0,0-4.708.972A10.189,10.189,0,0,0,78,3.109a13.341,13.341,0,0,0-2.37,4.516,20.112,20.112,0,0,0-.844,6.071,20,20,0,0,0,.783,5.87A12.1,12.1,0,0,0,77.8,23.85a9.355,9.355,0,0,0,3.518,2.623,11.593,11.593,0,0,0,4.626.888,12.376,12.376,0,0,0,2.737-.284,13.031,13.031,0,0,0,2.216-.7,9.952,9.952,0,0,0,1.618-.846,5.881,5.881,0,0,0,.854-.646,1.766,1.766,0,0,0,.285-.36,1.471,1.471,0,0,0,.132-.338,2.457,2.457,0,0,0,.072-.445c.012-.169.019-.365.019-.592,0-.323-.01-.592-.031-.8m19.272,2.464a1.332,1.332,0,0,0-.143-.465.738.738,0,0,0-.233-.264.542.542,0,0,0-.3-.085H102.016V14.2h8.826a.592.592,0,0,0,.294-.074.579.579,0,0,0,.225-.244,1.365,1.365,0,0,0,.132-.443,4.682,4.682,0,0,0,.04-.656,5.351,5.351,0,0,0-.04-.7,1.41,1.41,0,0,0-.132-.465.766.766,0,0,0-.225-.264.49.49,0,0,0-.294-.1h-8.826V2.675h10.291a.534.534,0,0,0,.294-.085.586.586,0,0,0,.214-.264,1.989,1.989,0,0,0,.132-.465A3.9,3.9,0,0,0,113,1.194a4.169,4.169,0,0,0-.051-.708,2.193,2.193,0,0,0-.132-.477.591.591,0,0,0-.214-.276.545.545,0,0,0-.294-.084H99.82a1.412,1.412,0,0,0-.886.328,1.387,1.387,0,0,0-.417,1.152V25.543a1.389,1.389,0,0,0,.417,1.152,1.412,1.412,0,0,0,.886.328h12.629a.53.53,0,0,0,.3-.085.719.719,0,0,0,.233-.274,1.455,1.455,0,0,0,.143-.477,4.88,4.88,0,0,0,.04-.666,5.3,5.3,0,0,0-.04-.709" transform="translate(9.836 0.688)" fill="#3b9fb7"/>
    </g>
    <g id="Gruppe_120" data-name="Gruppe 120" transform="translate(97.333 3.274)">
      <path id="Pfad_131" data-name="Pfad 131" d="M3.821.325A1.151,1.151,0,0,0,3.6-.066a.908.908,0,0,0-.407-.243A3.111,3.111,0,0,0,2.5-.426Q2.072-.458,1.42-.458q-.608,0-1.007.032a2.84,2.84,0,0,0-.65.117.868.868,0,0,0-.387.233A1.1,1.1,0,0,0-.836.3L-9.664,25.731a2.661,2.661,0,0,0-.172.751.547.547,0,0,0,.142.433.936.936,0,0,0,.529.2,7.028,7.028,0,0,0,.966.053,8.343,8.343,0,0,0,.925-.042,1.766,1.766,0,0,0,.55-.139.8.8,0,0,0,.294-.233,1.1,1.1,0,0,0,.162-.328l2.156-6.578H6.831l2.258,6.663a1.685,1.685,0,0,0,.172.316.6.6,0,0,0,.286.2,2.216,2.216,0,0,0,.569.105q.375.033,1.007.032a9.692,9.692,0,0,0,1.007-.042.968.968,0,0,0,.539-.191.531.531,0,0,0,.153-.435,2.733,2.733,0,0,0-.174-.751Zm2.1,16.628H-3.237L1.3,3.307h.019Zm24.742-.413a6.971,6.971,0,0,0-1.363-2.074,9.243,9.243,0,0,0-1.922-1.522q-1.079-.646-2.2-1.186t-2.2-1.067a11.879,11.879,0,0,1-1.922-1.164A5.3,5.3,0,0,1,19.7,8.067,3.678,3.678,0,0,1,19.2,6.1a4.142,4.142,0,0,1,.265-1.48,3.209,3.209,0,0,1,.793-1.206A3.861,3.861,0,0,1,21.6,2.6a5.391,5.391,0,0,1,1.912-.308,6.848,6.848,0,0,1,2.124.308,10.066,10.066,0,0,1,1.638.676q.691.37,1.169.667a1.6,1.6,0,0,0,.7.3.377.377,0,0,0,.254-.1.6.6,0,0,0,.174-.3,2.761,2.761,0,0,0,.092-.5c.019-.2.031-.423.031-.677s-.007-.487-.021-.656a3.084,3.084,0,0,0-.061-.433,1.2,1.2,0,0,0-.1-.3,1.565,1.565,0,0,0-.254-.318,3.578,3.578,0,0,0-.8-.529,9.123,9.123,0,0,0-1.393-.594,11.815,11.815,0,0,0-1.668-.423,9.992,9.992,0,0,0-1.759-.157,10.294,10.294,0,0,0-3.184.475,7.361,7.361,0,0,0-2.542,1.386,6.27,6.27,0,0,0-1.668,2.253,7.418,7.418,0,0,0-.6,3.056A7.17,7.17,0,0,0,16.156,9.3a7.207,7.207,0,0,0,1.352,2.084A9.3,9.3,0,0,0,19.4,12.932a23.255,23.255,0,0,0,2.176,1.2q1.118.539,2.187,1.059a11.66,11.66,0,0,1,1.9,1.142,5.222,5.222,0,0,1,1.343,1.448,3.72,3.72,0,0,1,.508,1.989,4.8,4.8,0,0,1-.365,1.925A3.88,3.88,0,0,1,26.1,23.119a4.837,4.837,0,0,1-1.627.9,6.5,6.5,0,0,1-2.084.318,8.66,8.66,0,0,1-2.655-.37,12.686,12.686,0,0,1-1.962-.794,12.4,12.4,0,0,1-1.333-.783,1.628,1.628,0,0,0-.8-.36.523.523,0,0,0-.285.075.542.542,0,0,0-.2.264,1.96,1.96,0,0,0-.122.5,6.211,6.211,0,0,0-.04.773,3.928,3.928,0,0,0,.112,1.047,1.549,1.549,0,0,0,.346.644,3.9,3.9,0,0,0,.833.614,9.517,9.517,0,0,0,1.486.7,12.935,12.935,0,0,0,2.013.57,12.079,12.079,0,0,0,2.451.233,11.419,11.419,0,0,0,3.528-.529A8.107,8.107,0,0,0,28.6,25.34a7.337,7.337,0,0,0,1.891-2.549,8.221,8.221,0,0,0,.682-3.427,7.061,7.061,0,0,0-.518-2.825M51.6.959A3.169,3.169,0,0,0,51.871.22.43.43,0,0,0,51.759-.2a1.075,1.075,0,0,0-.579-.2,9.457,9.457,0,0,0-1.15-.053,7.612,7.612,0,0,0-.875.042,2.422,2.422,0,0,0-.539.117.667.667,0,0,0-.305.222,1.093,1.093,0,0,0-.172.36L44.478,8.194q-.508,1.163-1,2.36t-.961,2.4h-.04q-.527-1.248-1.032-2.475T40.43,8.131L36.79.262a1.814,1.814,0,0,0-.214-.349A.7.7,0,0,0,36.241-.3a3.153,3.153,0,0,0-.6-.117,9.4,9.4,0,0,0-.986-.042c-.447,0-.8.014-1.068.042a.951.951,0,0,0-.55.191.445.445,0,0,0-.1.423,3.438,3.438,0,0,0,.275.761L40.654,16.4v10.09a.479.479,0,0,0,.375.5,3.077,3.077,0,0,0,.546.127,6.531,6.531,0,0,0,1.668,0,2.822,2.822,0,0,0,.547-.127.528.528,0,0,0,.282-.2.536.536,0,0,0,.082-.3V16.4ZM69.678,24.736a1.534,1.534,0,0,0-.133-.475.745.745,0,0,0-.224-.276.523.523,0,0,0-.315-.1H59.569V.22a.535.535,0,0,0-.081-.3.542.542,0,0,0-.285-.2A2.844,2.844,0,0,0,58.665-.4a6.618,6.618,0,0,0-1.679,0,2.814,2.814,0,0,0-.548.127.541.541,0,0,0-.286.2.535.535,0,0,0-.081.3V25.562a1.389,1.389,0,0,0,.417,1.152,1.412,1.412,0,0,0,.884.328H69.006a.523.523,0,0,0,.315-.1.716.716,0,0,0,.224-.3,1.806,1.806,0,0,0,.133-.487,5.281,5.281,0,0,0,.04-.709,5.54,5.54,0,0,0-.04-.719M92.478.22a.491.491,0,0,0-.092-.3.605.605,0,0,0-.285-.2A2.6,2.6,0,0,0,91.572-.4a5.3,5.3,0,0,0-.825-.053A5.441,5.441,0,0,0,89.9-.4a2.836,2.836,0,0,0-.54.127.542.542,0,0,0-.285.2A.535.535,0,0,0,89,.22V16.953a10.628,10.628,0,0,1-.437,3.215A6.327,6.327,0,0,1,87.3,22.474a5.152,5.152,0,0,1-2.015,1.4,7.4,7.4,0,0,1-2.714.465,7.148,7.148,0,0,1-2.676-.477,5.35,5.35,0,0,1-2.033-1.417,6.319,6.319,0,0,1-1.293-2.358,11.109,11.109,0,0,1-.447-3.321V.22a.535.535,0,0,0-.081-.3.542.542,0,0,0-.275-.2A2.6,2.6,0,0,0,75.23-.4,5.524,5.524,0,0,0,74.4-.458a5.413,5.413,0,0,0-.854.053,2.828,2.828,0,0,0-.529.127.536.536,0,0,0-.285.2.536.536,0,0,0-.082.3V17.205a13.116,13.116,0,0,0,.691,4.444,8.534,8.534,0,0,0,1.973,3.2,8.329,8.329,0,0,0,3.071,1.935,11.448,11.448,0,0,0,3.967.656,12.108,12.108,0,0,0,4.25-.7,8.406,8.406,0,0,0,3.173-2.052,9.17,9.17,0,0,0,2-3.31,13.15,13.15,0,0,0,.7-4.454Zm35.551,1.1a2.026,2.026,0,0,0-.124-.751,1.57,1.57,0,0,0-.321-.507,1.183,1.183,0,0,0-.475-.3,1.815,1.815,0,0,0-.59-.1h-2.252a3.236,3.236,0,0,0-.908.116,2.013,2.013,0,0,0-.714.381,2.752,2.752,0,0,0-.589.709,5.986,5.986,0,0,0-.5,1.079l-7.831,19.758h-.1L106.1,1.891A5.021,5.021,0,0,0,105.671.9a2.291,2.291,0,0,0-.621-.7,2.445,2.445,0,0,0-.866-.4,4.667,4.667,0,0,0-1.157-.127h-2.148a1.535,1.535,0,0,0-1.012.381,1.569,1.569,0,0,0-.454,1.268V26.493a.582.582,0,0,0,.072.3.5.5,0,0,0,.272.2,2.74,2.74,0,0,0,.535.127,5.406,5.406,0,0,0,.839.053,5.568,5.568,0,0,0,.858-.053,2.972,2.972,0,0,0,.544-.127.56.56,0,0,0,.294-.2.525.525,0,0,0,.083-.3V2.652h.021L111.8,26.6a.54.54,0,0,0,.151.233.91.91,0,0,0,.315.181,2.594,2.594,0,0,0,.51.117,5.551,5.551,0,0,0,.732.042,6.523,6.523,0,0,0,.7-.032,2.381,2.381,0,0,0,.51-.105.9.9,0,0,0,.325-.181.707.707,0,0,0,.172-.254L124.49,2.652h.04V26.493a.516.516,0,0,0,.085.3.551.551,0,0,0,.282.2,2.755,2.755,0,0,0,.546.127,5.437,5.437,0,0,0,.827.053,5.371,5.371,0,0,0,.848-.053,3,3,0,0,0,.533-.127.56.56,0,0,0,.294-.2.526.526,0,0,0,.083-.3Z" transform="translate(9.836 0.732)" fill="#3b9fb7"/>
    </g>
  </g>
</svg>
