<svg xmlns="http://www.w3.org/2000/svg" width="19.208" height="22.829" viewBox="0 0 19.208 22.829">
  <path id="Pfad_439" data-name="Pfad 439" d="M157.841,353.473c0-.076,0-.154-.009-.225a4.026,4.026,0,0,0-.4-1.528l-4.99-1.627a2.83,2.83,0,0,0-.94,2.016,15.439,15.439,0,0,1-5.213-4.033l-.011,0v-.011a16.589,16.589,0,0,1-3.512-6.892,2.569,2.569,0,0,0,2.263-.858l-.836-5.2a3.431,3.431,0,0,0-1.42-.73,1.226,1.226,0,0,0-.21-.05,2.681,2.681,0,0,0-3.179,2.84c-.006,8.934,6.654,17.393,14.953,19.063l.009,0c.112.028.236.047.352.071a1.44,1.44,0,0,0,.3.043A2.7,2.7,0,0,0,157.841,353.473Z" transform="translate(-139.008 -333.908)" fill="#3b9fb7" stroke="#3b9fb7" stroke-miterlimit="10" stroke-width="0.75"/>
</svg>
